<svg aria-hidden="true" style="position: absolute; width: 0; height: 0; overflow: hidden;" version="1.1" xmlns="http://www.w3.org/2000/svg" xmlns:xlink="http://www.w3.org/1999/xlink">
<defs>
<symbol id="icon-logo" viewBox="0 0 32 32">
<path fill="#ffda44" style="fill: var(--color1, #ffda44)" d="M16 32c8.837 0 16-7.163 16-16s-7.163-16-16-16c-8.837 0-16 7.163-16 16s7.163 16 16 16z"></path>
<path fill="#338af3" style="fill: var(--color2, #338af3)" d="M0 16c0-8.836 7.163-16 16-16s16 7.163 16 16z"></path>
</symbol>
<symbol id="icon-log-in" viewBox="0 0 32 32">
<path fill="none" stroke="#f4c550" style="stroke: var(--color1, #f4c550)" stroke-linejoin="round" stroke-linecap="round" stroke-miterlimit="4" stroke-width="3.2" d="M20 4h1.6c2.24 0 3.36 0 4.216 0.436 0.753 0.383 1.364 0.995 1.748 1.748 0.436 0.856 0.436 1.976 0.436 4.216v11.2c0 2.24 0 3.36-0.436 4.216-0.384 0.753-0.995 1.364-1.748 1.748-0.856 0.436-1.976 0.436-4.216 0.436h-1.6"></path>
<path fill="none" stroke="#f4c550" style="stroke: var(--color1, #f4c550)" stroke-linejoin="round" stroke-linecap="round" stroke-miterlimit="4" stroke-width="3.2" d="M13.333 9.333l6.667 6.667M20 16l-6.667 6.667M20 16h-16"></path>
</symbol>
<symbol id="icon-arrow" viewBox="0 0 32 32">
<path fill="none" stroke="#111" stroke-linejoin="round" stroke-linecap="round" stroke-miterlimit="4" stroke-width="2" d="M8 12l8 8 8-8"></path>
</symbol>
<symbol id="icon-book" viewBox="0 0 32 32">
   <path stroke-width="1.5" stroke="currentColor" stroke-linecap="round" stroke-linejoin="round" d="M14.6667 4.1333c0-0.7467 0-1.1201-0.1454-1.4053-0.1278-0.2509-0.3318-0.4548-0.5826-0.5827C13.6534 2 13.2801 2 12.5333 2h-0.2666c-1.4935 0-2.2402 0-2.8107 0.2906C8.9543 2.5463 8.5463 2.9543 8.2907 3.456 8 4.0265 8 4.7732 8 6.2667V14l0.0667-0.1001c0.4631-0.6946 0.6946-1.0419 1.0006-1.2934 0.2708-0.2226 0.5829-0.3896 0.9183-0.4914C10.3645 12 10.7819 12 11.6168 12h0.9165c0.7468 0 1.1201 0 1.4054-0.1453 0.2508-0.1279 0.4548-0.3318 0.5826-0.5827 0.1454-0.2852 0.1454-0.6586 0.1454-1.4053z" />
  <path stroke-width="1.5" stroke="currentColor" stroke-linecap="round" stroke-linejoin="round" d="M1.3333 4.1333c0-0.7467 0-1.1201 0.1453-1.4053 0.1279-0.2509 0.3318-0.4548 0.5827-0.5827C2.3465 2 2.7199 2 3.4667 2h0.2666C5.2268 2 5.9735 2 6.544 2.2907 7.0457 2.5463 7.4537 2.9543 7.7093 3.456 8 4.0265 8 4.7732 8 6.2667L8 14 7.9333 13.8999c-0.4631-0.6946-0.6947-1.0419-1.0006-1.2934-0.2708-0.2226-0.5829-0.3896-0.9183-0.4914C5.6355 12 5.2181 12 4.3832 12H3.4667c-0.7468 0-1.1202 0-1.4054-0.1453-0.2509-0.1279-0.4548-0.3318-0.5827-0.5827-0.1453-0.2852-0.1453-0.6586-0.1453-1.4053z" />
</symbol>

</defs>
</svg>
